HIERARCHY
ROOT SpineBase
{
  OFFSET 0.000000 0.000000 0.000000
  CHANNELS 6 Xposition Yposition Zposition Zrotation Xrotation Yrotation
  JOINT SpineMid
  {
    OFFSET 0.000000 26.920992 0.000000
    CHANNELS 3 Zrotation Xrotation Yrotation
    JOINT SpineShoulder
    {
      OFFSET -0.094328 20.064516 -0.612869
      CHANNELS 3 Zrotation Xrotation Yrotation
      JOINT Neck
      {
        OFFSET -0.057226 6.666599 -0.481474
        CHANNELS 3 Zrotation Xrotation Yrotation
        JOINT Head
        {
          OFFSET -3.074629 12.424563 -0.641494
          CHANNELS 3 Zrotation Xrotation Yrotation
          End Site
          {
            OFFSET 0 0 0
          }
        }
      }
      JOINT ShoulderLeft
      {
        OFFSET -13.772740 -3.998780 4.612713
        CHANNELS 3 Zrotation Xrotation Yrotation
        JOINT ElbowLeft
        {
          OFFSET -0.498097 -24.880165 1.473888
          CHANNELS 3 Zrotation Xrotation Yrotation
          JOINT WristLeft
          {
            OFFSET -1.354866 -19.701961 -6.398762
            CHANNELS 3 Zrotation Xrotation Yrotation
            JOINT HandLeft
            {
              OFFSET 0.865075 -2.877675 -0.363461
              CHANNELS 3 Zrotation Xrotation Yrotation
              JOINT HandTipLeft
              {
                OFFSET -0.270803 -6.481414 -1.830419
                CHANNELS 3 Zrotation Xrotation Yrotation
                End Site
                {
                  OFFSET 0 0 0
                }
              }
              JOINT ThumbLeft
              {
                OFFSET 3.042169 -0.136889 -3.095225
                CHANNELS 3 Zrotation Xrotation Yrotation
                End Site
                {
                  OFFSET 0 0 0
                }
              }
            }
          }
        }
      }
      JOINT ShoulderRight
      {
        OFFSET 10.764730 -2.832860 -7.028565
        CHANNELS 3 Zrotation Xrotation Yrotation
        JOINT ElbowRight
        {
          OFFSET 4.546471 -21.229367 -2.941950
          CHANNELS 3 Zrotation Xrotation Yrotation
          JOINT WristRight
          {
            OFFSET -0.853990 -20.563189 -6.993922
            CHANNELS 3 Zrotation Xrotation Yrotation
            JOINT HandRight
            {
              OFFSET -1.218909 -6.328222 -0.465341
              CHANNELS 3 Zrotation Xrotation Yrotation
              JOINT HandTipRight
              {
                OFFSET -0.785217 -5.882911 -1.521078
                CHANNELS 3 Zrotation Xrotation Yrotation
                End Site
                {
                  OFFSET 0 0 0
                }
              }
              JOINT ThumbRight
              {
                OFFSET -2.678942 -0.042988 -0.578745
                CHANNELS 3 Zrotation Xrotation Yrotation
                End Site
                {
                  OFFSET 0 0 0
                }
              }
            }
          }
        }
      }
    }
  }
  JOINT HipLeft
  {
    OFFSET -5.731619 0.135963 -0.830310
    CHANNELS 3 Zrotation Xrotation Yrotation
    JOINT KneeLeft
    {
      OFFSET 3.116424 -28.961464 1.903397
      CHANNELS 3 Zrotation Xrotation Yrotation
      JOINT AnkleLeft
      {
        OFFSET 5.220512 -34.279090 5.966305
        CHANNELS 3 Zrotation Xrotation Yrotation
        JOINT FootLeft
        {
          OFFSET -3.334133 -2.434501 -9.945832
          CHANNELS 3 Zrotation Xrotation Yrotation
          End Site
          {
            OFFSET 0 0 0
          }
        }
      }
    }
  }
  JOINT HipRight
  {
    OFFSET 5.078508 1.405761 -5.238671
    CHANNELS 3 Zrotation Xrotation Yrotation
    JOINT KneeRight
    {
      OFFSET 7.527372 -30.009912 -2.656375
      CHANNELS 3 Zrotation Xrotation Yrotation
      JOINT AnkleRight
      {
        OFFSET 6.065205 -32.102472 3.617295
        CHANNELS 3 Zrotation Xrotation Yrotation
        JOINT FootRight
        {
          OFFSET -3.302913 -5.252183 -4.792681
          CHANNELS 3 Zrotation Xrotation Yrotation
          End Site
          {
            OFFSET 0 0 0
          }
        }
      }
    }
  }
}
MOTION
Frames: 13
Frame Time: 0.033333
39.360188 43.040060 379.265167 9.667294 -26.579096 15.676519 -0.083274 0.125459 -13.222862 0.846703 0.058204 0.123321 18.693539 9.660293 -9.498163 0.000000 0.000000 0.000000 7.724061 -0.720504 -0.596723 15.946605 12.892626 -20.073521 -33.214603 22.122563 16.198253 61.995740 -19.746020 -2.236413 0.000000 0.000000 0.000000 0.000000 0.000000 0.000000 -7.140318 2.583702 -4.535854 -112.726989 -20.165103 66.545115 24.169220 47.088371 6.418176 -29.469761 -20.949398 -20.373308 0.000000 0.000000 0.000000 0.000000 0.000000 0.000000 18.648818 37.182980 -21.885272 -12.864262 -9.468092 -2.863002 10.374376 -38.973632 -4.873925 0.000000 0.000000 0.000000 35.130285 46.287535 -31.264354 -30.648220 -18.735942 -12.941389 16.078932 27.647814 -25.373958 0.000000 0.000000 0.000000
39.223641 45.456258 378.538245 9.490899 -27.267948 -1.040138 -0.466884 0.702083 3.527521 0.541659 -0.160849 0.166145 21.008306 10.196992 -10.100133 0.000000 0.000000 0.000000 8.519506 -0.465224 -0.784207 10.761219 11.095501 -15.814880 -31.082745 29.643190 17.142476 66.828966 -17.959656 -2.166934 0.000000 0.000000 0.000000 0.000000 0.000000 0.000000 0.154455 0.574296 -7.603393 -118.689348 -23.108398 66.514568 26.984200 51.788963 10.194592 -39.108799 -21.688187 -34.068767 0.000000 0.000000 0.000000 0.000000 0.000000 0.000000 5.087499 32.649100 -0.572634 -14.526884 -1.103000 -1.593575 7.903003 -25.523091 -2.659972 0.000000 0.000000 0.000000 10.991229 57.417106 -3.334962 -26.085035 -22.551482 -13.583038 -1.079922 40.991848 -14.711920 0.000000 0.000000 0.000000
39.976754 47.781005 377.817668 10.193435 -27.218248 -8.384478 -1.195496 1.077998 11.134534 0.301546 -0.003880 0.201875 24.299003 8.781346 -10.546982 0.000000 0.000000 0.000000 8.667746 -1.470678 -0.599196 6.657660 11.741513 -13.026910 -31.376656 34.330191 19.133061 60.522869 -16.312359 -2.612855 0.000000 0.000000 0.000000 0.000000 0.000000 0.000000 0.973740 2.210044 -7.448827 -116.296586 -22.196774 61.618095 12.043699 58.704291 21.440721 -26.901514 -25.013086 -23.801386 0.000000 0.000000 0.000000 0.000000 0.000000 0.000000 -0.971146 29.471888 8.760452 -16.879699 0.712292 -1.579046 6.793057 -6.808038 -8.774076 0.000000 0.000000 0.000000 -9.283312 56.224614 16.452585 -20.481633 -23.697906 -12.267987 -28.948687 49.421849 7.550207 0.000000 0.000000 0.000000
39.923575 49.460301 376.587717 9.401699 -25.602109 -4.100880 -1.264697 1.128633 6.533381 0.330891 0.043232 0.171453 25.866398 7.191507 -10.034108 0.000000 0.000000 0.000000 9.144398 -3.876676 -0.175397 6.644915 14.619054 -13.493921 -48.339405 41.422901 32.531615 60.363674 -21.000365 3.209170 0.000000 0.000000 0.000000 0.000000 0.000000 0.000000 0.936385 5.044438 -6.421694 -109.278355 -23.807514 50.112109 -10.655052 44.637205 13.154233 2.258294 -11.012582 18.903145 0.000000 0.000000 0.000000 0.000000 0.000000 0.000000 2.402242 29.074708 3.506073 -18.123515 -2.379387 -2.534532 3.297033 11.097596 -7.037557 0.000000 0.000000 0.000000 -2.119123 49.966303 7.686330 -17.442989 -20.708968 -9.412432 -52.191852 44.680719 28.126300 0.000000 0.000000 0.000000
39.312269 51.282928 375.329120 8.279494 -22.775204 4.184061 -0.867063 1.123059 -2.285963 0.443776 -0.078190 0.154051 26.523198 4.212452 -8.835197 0.000000 0.000000 0.000000 10.604040 -7.467571 0.447983 2.908445 22.274829 -12.677497 -58.457630 41.240469 40.496804 52.219083 -27.757419 4.094568 0.000000 0.000000 0.000000 0.000000 0.000000 0.000000 -0.607063 7.975399 -4.629234 -104.629821 -22.554465 41.574906 -22.121035 21.645136 -12.499372 4.034508 21.914234 58.554921 0.000000 0.000000 0.000000 0.000000 0.000000 0.000000 6.348439 27.661219 -5.525936 -15.551190 -6.620527 -3.094823 -2.599820 17.426571 2.461732 0.000000 0.000000 0.000000 8.065693 41.750437 -5.557656 -15.707988 -18.032852 -7.061857 -58.787217 39.342921 34.448606 0.000000 0.000000 0.000000
38.976288 53.187031 374.071519 8.313462 -18.736777 21.397869 -0.644800 0.625785 -19.777162 0.387289 -0.120034 0.198697 26.134899 1.039974 -7.165328 0.000000 0.000000 0.000000 10.685418 -9.371850 1.023385 1.568866 27.287478 -12.671514 -59.695215 43.907035 43.609991 36.288164 -43.284876 0.181707 0.000000 0.000000 0.000000 0.000000 0.000000 0.000000 -4.028196 11.855724 -2.026900 -96.806432 -16.442739 33.906036 -32.755323 2.623478 -35.169827 -15.871059 36.508089 87.905367 0.000000 0.000000 0.000000 0.000000 0.000000 0.000000 11.746763 26.509012 -23.315422 -10.607902 -13.806381 -3.620246 -8.975589 20.099663 12.925994 0.000000 0.000000 0.000000 14.927033 29.381396 -24.082833 -11.797929 -14.920636 -4.495598 -54.256194 38.141163 31.132566 0.000000 0.000000 0.000000
39.351587 55.332618 372.679275 10.155657 -16.431242 42.312355 -0.567895 0.928807 -40.521530 0.137915 0.008006 0.292975 23.497473 1.593799 -5.931397 0.000000 0.000000 0.000000 8.911175 -7.687649 0.974028 1.150918 22.261968 -11.295071 -59.157171 53.828901 50.005496 17.440713 -51.287378 -9.505873 0.000000 0.000000 0.000000 0.000000 0.000000 0.000000 -5.090814 7.926211 -2.366173 -86.268533 -13.677156 32.949684 -42.528775 -3.782109 -36.380226 -19.329078 37.507976 88.642150 0.000000 0.000000 0.000000 0.000000 0.000000 0.000000 20.194267 28.290405 -45.998602 -5.664104 -23.094512 -4.061892 -10.320716 18.597632 16.976063 0.000000 0.000000 0.000000 12.378731 19.174554 -43.403345 -5.587765 -8.890288 -1.686366 -38.497002 36.333912 18.572437 0.000000 0.000000 0.000000
39.703338 56.801652 371.843032 10.302469 -14.172040 53.443862 -0.782850 0.622558 -51.802122 0.101040 0.017847 0.314533 21.087098 3.817158 -5.064843 0.000000 0.000000 0.000000 8.259226 -1.882898 0.058685 -5.304329 13.527288 -5.793456 -51.045171 53.610748 46.243338 18.777918 -46.248642 -8.943096 0.000000 0.000000 0.000000 0.000000 0.000000 0.000000 -9.199564 1.523624 -2.192101 -67.973547 -2.307143 36.105049 -60.567487 -11.750591 -41.284202 -29.418609 53.128606 104.890803 0.000000 0.000000 0.000000 0.000000 0.000000 0.000000 29.296237 30.370874 -59.829133 -0.874618 -33.456602 -3.782641 -8.437323 13.944242 16.474849 0.000000 0.000000 0.000000 8.448656 16.391894 -53.452793 0.350712 -7.172307 -0.866204 -17.873332 29.933315 2.309346 0.000000 0.000000 0.000000
39.960227 58.413487 371.258539 11.569346 -12.232109 54.167747 -0.525245 0.129728 -52.567336 -0.474833 0.712778 0.365059 14.847054 5.281630 -3.588448 0.000000 0.000000 0.000000 5.420402 3.200377 -0.551985 -6.934360 5.332383 -3.690821 -30.922417 52.876656 32.141280 7.663365 -43.904673 -12.738580 0.000000 0.000000 0.000000 0.000000 0.000000 0.000000 -9.260175 -4.673467 -3.450623 -50.610562 11.100507 32.644243 -53.726837 -13.564146 -25.918369 -10.418148 70.069285 69.933924 0.000000 0.000000 0.000000 0.000000 0.000000 0.000000 29.471522 34.928579 -62.036019 4.832266 -38.589576 -1.774784 -5.146349 7.950344 11.360913 0.000000 0.000000 0.000000 5.317559 20.447224 -52.895527 5.827246 -10.564458 -1.352643 -13.656761 25.582011 -0.284892 0.000000 0.000000 0.000000
40.208252 60.275435 370.833758 12.550204 -9.803501 53.288727 -0.027097 1.208924 -51.894417 -0.477527 0.586057 0.392914 11.320410 3.601290 -2.281566 0.000000 0.000000 0.000000 2.350675 7.072830 -0.900449 -7.687882 -1.222043 -2.275073 -16.884505 45.076994 20.747992 3.688894 -36.423641 -12.219088 0.000000 0.000000 0.000000 0.000000 0.000000 0.000000 -5.324518 -13.789593 -5.379634 -38.520056 24.393012 27.934605 -27.361944 -10.700602 -11.684853 33.991427 53.932103 0.489492 0.000000 0.000000 0.000000 0.000000 0.000000 0.000000 26.590387 38.266179 -61.510648 9.695054 -41.847242 0.206237 -0.958199 -1.617169 9.693582 0.000000 0.000000 0.000000 1.635725 25.031957 -50.477836 11.620431 -14.529422 -1.666983 -9.926168 27.459754 -5.654303 0.000000 0.000000 0.000000
40.243164 61.825402 370.570258 12.776322 -7.217868 48.671826 0.367224 2.553086 -47.673033 -0.408221 0.516207 0.385567 9.079661 1.469918 -1.131567 0.000000 0.000000 0.000000 -0.584769 10.080537 -1.104234 -7.662688 -6.523886 -1.361922 -6.616371 28.058131 10.326559 3.408467 -19.973626 -8.094699 0.000000 0.000000 0.000000 0.000000 0.000000 0.000000 -0.856851 -20.463294 -5.880380 -33.139145 34.656588 23.555814 -4.707081 1.139455 -6.029115 10.357416 15.483143 2.064455 0.000000 0.000000 0.000000 0.000000 0.000000 0.000000 19.220418 41.357851 -55.325900 14.474781 -42.713730 2.352875 -2.017722 -0.325906 8.586952 0.000000 0.000000 0.000000 -2.143805 29.211572 -44.164044 16.302823 -19.563762 -1.728929 -9.431930 32.099302 -9.201297 0.000000 0.000000 0.000000
39.896588 62.961080 370.260431 12.016564 -4.345663 35.967447 -0.124553 3.487851 -35.420421 -0.167340 0.388092 0.365698 7.967421 -0.652146 -0.221254 0.000000 0.000000 0.000000 -3.254747 12.261744 -1.194377 -6.711392 -9.936786 -0.769893 -5.040984 15.041225 6.147690 8.325160 -8.116561 -5.395679 0.000000 0.000000 0.000000 0.000000 0.000000 0.000000 0.990821 -20.469090 -5.011063 -19.906771 32.607988 12.267500 2.974811 10.841400 -4.828757 -1.106565 -9.647322 2.789410 0.000000 0.000000 0.000000 0.000000 0.000000 0.000000 2.463958 40.543952 -36.636467 17.032922 -39.425216 3.267482 -4.696730 5.143071 7.252389 0.000000 0.000000 0.000000 -8.165447 32.656579 -28.728865 19.614043 -27.661083 -1.473486 -13.434472 34.162833 -6.703505 0.000000 0.000000 0.000000
39.105934 63.425476 370.041675 10.189628 -1.694638 29.836977 -0.471898 3.901440 -29.669063 0.010647 0.379698 0.311191 8.302676 -1.907263 0.621180 0.000000 0.000000 0.000000 -5.183386 12.874302 -1.116406 -4.654444 -10.268520 -0.246640 -7.269165 9.966630 5.732561 11.180536 -4.182986 -5.035144 0.000000 0.000000 0.000000 0.000000 0.000000 0.000000 -0.625307 -17.836737 -3.950864 -7.414178 24.803590 4.191516 3.571264 11.241849 -3.593723 -3.642031 -11.821184 2.299671 0.000000 0.000000 0.000000 0.000000 0.000000 0.000000 -2.444781 37.018226 -28.845401 17.461092 -39.186968 3.563582 -4.787889 7.582351 1.479054 0.000000 0.000000 0.000000 -10.392668 32.115959 -21.599020 21.197224 -31.678493 -0.951048 -16.025109 36.101353 -5.661620 0.000000 0.000000 0.000000
